<svg width="85" height="22" viewBox="0 0 85 22" fill="none" xmlns="http://www.w3.org/2000/svg">
<path d="M6.93 21.3C6.69 21.3 6.44 21.26 6.18 21.18C5.94 21.1 5.74 20.91 5.58 20.61C5.42 20.31 5.34 19.85 5.34 19.23C5.34 18.79 5.37 18.25 5.43 17.61C5.51 16.97 5.61 16.28 5.73 15.54C5.89 14.54 6.02 13.49 6.12 12.39C6.24 11.27 6.3 10.13 6.3 8.97C6.3 8.03 6.25 7.22 6.15 6.54C6.07 5.84 5.96 5.3 5.82 4.92C5.06 4.94 4.34 4.99 3.66 5.07C2.98 5.15 2.29 5.28 1.59 5.46C1.41 5.48 1.25 5.51 1.11 5.55C0.99 5.57 0.87 5.58 0.75 5.58C0.57 5.58 0.44 5.55 0.36 5.49C0.28 5.41 0.24 5.23 0.24 4.95C0.24 4.61 0.29 4.26 0.39 3.9C0.49 3.52 0.64 3.2 0.84 2.94C1.04 2.66 1.27 2.46 1.53 2.34C1.81 2.2 2.11 2.11 2.43 2.07C2.93 2.01 3.57 1.96 4.35 1.92C5.13 1.86 5.98 1.81 6.9 1.77C7.84 1.73 8.76 1.71 9.66 1.71C11.12 1.71 12.16 1.72 12.78 1.74C13.42 1.76 13.85 1.79 14.07 1.83C14.35 1.87 14.54 1.96 14.64 2.1C14.76 2.22 14.82 2.42 14.82 2.7C14.82 3.24 14.58 3.78 14.1 4.32C13.9 4.56 13.69 4.75 13.47 4.89C13.25 5.01 12.96 5.06 12.6 5.04C12.28 5 11.81 4.97 11.19 4.95C10.57 4.93 9.88 4.92 9.12 4.92C9.1 5.62 9.04 6.44 8.94 7.38C8.86 8.3 8.76 9.23 8.64 10.17C8.52 11.09 8.42 12.01 8.34 12.93C8.26 13.85 8.22 14.69 8.22 15.45C8.22 16.15 8.28 16.77 8.4 17.31C8.54 17.83 8.81 18.28 9.21 18.66C9.49 18.94 9.63 19.24 9.63 19.56C9.63 20 9.38 20.4 8.88 20.76C8.38 21.12 7.73 21.3 6.93 21.3ZM17.077 21.33C16.797 21.33 16.557 21.26 16.357 21.12C16.157 21 16.077 20.83 16.117 20.61C16.417 19.01 16.667 17.39 16.867 15.75C17.087 14.09 17.197 12.42 17.197 10.74C17.197 9.26 17.147 7.92 17.047 6.72C16.947 5.52 16.627 4.37 16.087 3.27C15.987 3.05 15.907 2.86 15.847 2.7C15.787 2.54 15.757 2.39 15.757 2.25C15.757 1.87 15.977 1.5 16.417 1.14C16.877 0.779999 17.357 0.6 17.857 0.6C18.557 0.6 19.037 1.04 19.297 1.92C19.557 2.8 19.687 4.1 19.687 5.82C19.687 7.88 19.567 9.68 19.327 11.22C19.087 12.74 18.877 13.9 18.697 14.7L18.817 14.76C19.217 13.7 19.697 12.71 20.257 11.79C20.837 10.87 21.507 10.13 22.267 9.57C23.027 9.01 23.907 8.73 24.907 8.73C25.967 8.73 26.767 9.05 27.307 9.69C27.867 10.33 28.147 11.12 28.147 12.06C28.147 12.46 28.107 12.85 28.027 13.23C27.947 13.59 27.857 13.94 27.757 14.28C27.657 14.6 27.567 14.93 27.487 15.27C27.407 15.59 27.367 15.92 27.367 16.26C27.367 16.88 27.517 17.39 27.817 17.79C28.117 18.17 28.517 18.44 29.017 18.6C29.157 18.64 29.257 18.7 29.317 18.78C29.397 18.84 29.437 18.96 29.437 19.14C29.437 19.32 29.377 19.58 29.257 19.92C29.137 20.26 28.917 20.58 28.597 20.88C28.277 21.16 27.807 21.3 27.187 21.3C26.387 21.3 25.767 21.02 25.327 20.46C24.887 19.88 24.667 19.14 24.667 18.24C24.667 17.8 24.707 17.35 24.787 16.89C24.887 16.43 24.997 15.99 25.117 15.57C25.217 15.15 25.307 14.76 25.387 14.4C25.467 14.02 25.507 13.7 25.507 13.44C25.507 12.52 25.027 12.06 24.067 12.06C23.267 12.06 22.557 12.35 21.937 12.93C21.337 13.49 20.817 14.21 20.377 15.09C19.957 15.95 19.607 16.84 19.327 17.76V18.78C19.327 19.52 19.107 20.13 18.667 20.61C18.247 21.09 17.717 21.33 17.077 21.33ZM36.0551 21.39C34.5351 21.39 33.3451 20.96 32.4851 20.1C31.6451 19.22 31.2251 18 31.2251 16.44C31.2251 15.02 31.5351 13.73 32.1551 12.57C32.7751 11.41 33.6051 10.49 34.6451 9.81C35.7051 9.11 36.8651 8.76 38.1251 8.76C39.3251 8.76 40.2851 9.06 41.0051 9.66C41.7251 10.24 42.0851 11.02 42.0851 12C42.0851 12.78 41.8451 13.5 41.3651 14.16C40.8851 14.82 40.2451 15.35 39.4451 15.75C38.6451 16.13 37.7551 16.32 36.7751 16.32C35.5751 16.32 34.5951 16.05 33.8351 15.51C33.8551 16.43 34.1651 17.17 34.7651 17.73C35.3851 18.29 36.1751 18.57 37.1351 18.57C37.7151 18.57 38.3051 18.47 38.9051 18.27C39.5251 18.05 40.0551 17.76 40.4951 17.4C40.7751 17.16 41.0351 17.04 41.2751 17.04C41.4751 17.04 41.6351 17.11 41.7551 17.25C41.8951 17.37 41.9651 17.53 41.9651 17.73C41.9651 18.17 41.5851 18.75 40.8251 19.47C39.4851 20.75 37.8951 21.39 36.0551 21.39ZM36.5051 14.34C37.2251 14.34 37.8251 14.19 38.3051 13.89C38.7851 13.59 39.0251 13.21 39.0251 12.75C39.0251 12.37 38.8651 12.08 38.5451 11.88C38.2251 11.66 37.7851 11.55 37.2251 11.55C36.4851 11.55 35.8351 11.75 35.2751 12.15C34.7351 12.53 34.3451 13.07 34.1051 13.77C34.3851 13.95 34.7451 14.09 35.1851 14.19C35.6251 14.29 36.0651 14.34 36.5051 14.34ZM46.0622 21.33C45.3422 21.33 45.0222 21.09 45.1022 20.61C45.3222 19.75 45.5022 18.88 45.6422 18C45.8022 17.1 45.8822 16.24 45.8822 15.42C45.8822 14.36 45.8122 13.59 45.6722 13.11C45.5522 12.61 45.3822 12.27 45.1622 12.09C44.9422 11.89 44.6722 11.74 44.3522 11.64C44.2122 11.58 44.0822 11.5 43.9622 11.4C43.8622 11.3 43.8122 11.16 43.8122 10.98C43.8122 10.7 43.9222 10.39 44.1422 10.05C44.3622 9.71 44.6722 9.42 45.0722 9.18C45.4922 8.92 45.9622 8.79 46.4822 8.79C47.1622 8.79 47.6322 9.03 47.8922 9.51C48.1522 9.97 48.2822 10.58 48.2822 11.34C48.2822 11.84 48.2322 12.4 48.1322 13.02C48.0322 13.64 47.9322 14.2 47.8322 14.7L47.8922 14.73C48.2122 13.67 48.6022 12.69 49.0622 11.79C49.5422 10.89 50.1122 10.16 50.7722 9.6C51.4522 9.04 52.2322 8.76 53.1122 8.76C54.0122 8.76 54.7222 9.07 55.2422 9.69C55.7622 10.29 56.0222 11.18 56.0222 12.36V13.02C56.6022 11.8 57.3022 10.78 58.1222 9.96C58.9622 9.14 59.9722 8.73 61.1522 8.73C62.1122 8.73 62.8622 9.05 63.4022 9.69C63.9422 10.33 64.2122 11.13 64.2122 12.09C64.2122 12.47 64.1722 12.84 64.0922 13.2C64.0122 13.54 63.9222 13.88 63.8222 14.22C63.7422 14.54 63.6622 14.87 63.5822 15.21C63.5022 15.55 63.4622 15.89 63.4622 16.23C63.4622 17.43 63.9722 18.21 64.9922 18.57C65.1322 18.63 65.2422 18.7 65.3222 18.78C65.4022 18.84 65.4422 18.96 65.4422 19.14C65.4422 19.32 65.3822 19.58 65.2622 19.92C65.1622 20.26 64.9522 20.58 64.6322 20.88C64.3122 21.16 63.8522 21.3 63.2522 21.3C62.4722 21.3 61.8722 21.02 61.4522 20.46C61.0322 19.88 60.8222 19.15 60.8222 18.27C60.8222 17.83 60.8622 17.37 60.9422 16.89C61.0222 16.41 61.1222 15.95 61.2422 15.51C61.3422 15.11 61.4222 14.73 61.4822 14.37C61.5622 14.01 61.6022 13.7 61.6022 13.44C61.6022 12.96 61.4822 12.61 61.2422 12.39C61.0222 12.17 60.7222 12.06 60.3422 12.06C59.7022 12.06 59.1222 12.26 58.6022 12.66C58.1022 13.06 57.6522 13.58 57.2522 14.22C56.8722 14.86 56.5422 15.56 56.2622 16.32C56.2822 16.5 56.2922 16.74 56.2922 17.04C56.3122 17.32 56.3222 17.57 56.3222 17.79C56.3222 18.17 56.2922 18.57 56.2322 18.99C56.1922 19.41 56.1022 19.76 55.9622 20.04C55.8022 20.42 55.5622 20.73 55.2422 20.97C54.9422 21.21 54.5322 21.33 54.0122 21.33C53.7922 21.33 53.5822 21.28 53.3822 21.18C53.1822 21.1 53.0822 20.96 53.0822 20.76C53.0822 20.68 53.1422 20.33 53.2622 19.71C53.3822 19.07 53.5022 18.29 53.6222 17.37C53.7422 16.45 53.8022 15.55 53.8022 14.67C53.8022 13.71 53.7022 13.05 53.5022 12.69C53.3022 12.31 53.0022 12.12 52.6022 12.12C52.1022 12.12 51.6222 12.33 51.1622 12.75C50.7222 13.17 50.3122 13.71 49.9322 14.37C49.5722 15.03 49.2522 15.72 48.9722 16.44C48.7122 17.16 48.5022 17.83 48.3422 18.45V18.78C48.3422 19.52 48.1322 20.13 47.7122 20.61C47.3122 21.09 46.7622 21.33 46.0622 21.33ZM69.8709 6.09C69.3109 6.07 68.8609 5.9 68.5209 5.58C68.1809 5.26 68.0109 4.81 68.0109 4.23C68.0309 3.61 68.2409 3.11 68.6409 2.73C69.0409 2.33 69.5509 2.14 70.1709 2.16C70.7509 2.18 71.2009 2.35 71.5209 2.67C71.8609 2.99 72.0209 3.44 72.0009 4.02C71.9809 4.62 71.7809 5.12 71.4009 5.52C71.0209 5.9 70.5109 6.09 69.8709 6.09ZM69.9009 21.3C69.3009 21.3 68.8309 21.14 68.4909 20.82C68.1509 20.48 67.9809 19.91 67.9809 19.11C67.9809 18.65 68.0209 18.2 68.1009 17.76C68.2009 17.32 68.3109 16.89 68.4309 16.47C68.5709 16.03 68.6809 15.58 68.7609 15.12C68.8609 14.66 68.9109 14.17 68.9109 13.65C68.9109 13.29 68.8609 12.95 68.7609 12.63C68.6609 12.29 68.4409 12.04 68.1009 11.88C67.8409 11.74 67.6109 11.6 67.4109 11.46C67.2309 11.3 67.1409 11.1 67.1409 10.86C67.1409 10.58 67.2709 10.28 67.5309 9.96C67.7909 9.64 68.1309 9.37 68.5509 9.15C68.9909 8.91 69.4409 8.79 69.9009 8.79C70.4009 8.79 70.7609 8.92 70.9809 9.18C71.2209 9.44 71.3809 9.77 71.4609 10.17C71.5409 10.57 71.5809 10.98 71.5809 11.4C71.5809 12.04 71.5309 12.67 71.4309 13.29C71.3309 13.89 71.2309 14.45 71.1309 14.97C71.0509 15.35 70.9909 15.7 70.9509 16.02C70.9109 16.34 70.8909 16.64 70.8909 16.92C70.8909 17.42 71.0109 17.8 71.2509 18.06C71.4909 18.3 71.8309 18.53 72.2709 18.75C72.4509 18.85 72.5409 19 72.5409 19.2C72.5409 19.36 72.4609 19.61 72.3009 19.95C72.1409 20.29 71.8609 20.6 71.4609 20.88C71.0809 21.16 70.5609 21.3 69.9009 21.3ZM78.7523 21.39C78.0123 21.39 77.3223 21.28 76.6823 21.06C76.0423 20.84 75.5223 20.53 75.1223 20.13C74.7223 19.73 74.5223 19.25 74.5223 18.69C74.5223 18.39 74.5923 18.11 74.7323 17.85C74.8923 17.57 75.1423 17.43 75.4823 17.43C75.6623 17.43 75.8523 17.48 76.0523 17.58C76.4123 17.78 76.8723 17.97 77.4323 18.15C77.9923 18.31 78.5823 18.39 79.2023 18.39C79.9023 18.39 80.5223 18.29 81.0623 18.09C81.6023 17.89 81.8723 17.61 81.8723 17.25C81.8723 16.97 81.6623 16.77 81.2423 16.65C80.8423 16.53 80.1623 16.4 79.2023 16.26C78.5423 16.14 77.9023 16 77.2823 15.84C76.6623 15.68 76.1523 15.41 75.7523 15.03C75.3523 14.63 75.1523 14.05 75.1523 13.29C75.1523 12.55 75.3523 11.84 75.7523 11.16C76.1723 10.46 76.7923 9.88 77.6123 9.42C78.4323 8.96 79.4323 8.73 80.6123 8.73C81.2323 8.73 81.8323 8.8 82.4123 8.94C82.9923 9.08 83.4723 9.29 83.8523 9.57C84.2323 9.85 84.4223 10.2 84.4223 10.62C84.4223 10.98 84.2923 11.31 84.0323 11.61C83.7923 11.91 83.5023 12.16 83.1623 12.36C82.8423 12.54 82.5723 12.63 82.3523 12.63C82.1923 12.63 82.0023 12.52 81.7823 12.3C81.4423 12.02 81.0623 11.83 80.6423 11.73C80.2423 11.61 79.8423 11.55 79.4423 11.55C78.8423 11.55 78.3523 11.64 77.9723 11.82C77.6123 12 77.4323 12.23 77.4323 12.51C77.4323 12.77 77.5823 12.98 77.8823 13.14C78.2023 13.3 78.5923 13.42 79.0523 13.5C79.5123 13.56 79.9523 13.62 80.3723 13.68C81.5323 13.84 82.4523 14.12 83.1323 14.52C83.8123 14.9 84.1523 15.58 84.1523 16.56C84.1523 17.32 83.9323 18.08 83.4923 18.84C83.0723 19.58 82.4523 20.19 81.6323 20.67C80.8323 21.15 79.8723 21.39 78.7523 21.39Z" fill="black"/>
</svg>
